<?xml version="1.0" standalone="no"?>
<!DOCTYPE svg PUBLIC "-//W3C//DTD SVG 20010904//EN"
 "http://www.w3.org/TR/2001/REC-SVG-20010904/DTD/svg10.dtd">
<svg version="1.0" xmlns="http://www.w3.org/2000/svg"
 width="728.000000pt" height="728.000000pt" viewBox="0 0 728.000000 728.000000"
 preserveAspectRatio="xMidYMid meet">
<metadata>
Created by potrace 1.14, written by Peter Selinger 2001-2017
</metadata>
<g transform="translate(0.000000,728.000000) scale(0.100000,-0.100000)"
fill="#000000" stroke="none">
<path d="M696 7180 l-100 -5 -1 -1375 c0 -756 1 -1383 3 -1392 4 -14 15 -17
64 -16 33 1 62 7 64 12 1 6 5 45 8 86 10 145 59 379 118 565 17 55 32 102 32
105 3 18 85 217 119 289 57 120 167 303 242 400 18 23 179 185 205 206 89 71
245 155 375 202 39 14 77 27 85 31 8 3 20 6 25 7 6 2 37 10 70 19 92 24 194
44 260 51 33 4 74 10 90 13 17 3 558 7 1204 9 l1174 4 -25 -33 c-14 -18 -127
-175 -253 -348 -125 -173 -239 -331 -254 -350 -15 -19 -34 -46 -44 -60 -9 -14
-33 -45 -52 -70 -19 -25 -38 -52 -42 -60 -4 -8 -12 -20 -17 -26 -6 -6 -19 -22
-28 -35 -53 -73 -204 -281 -290 -399 -54 -74 -106 -146 -115 -159 -10 -14 -32
-43 -48 -65 -17 -23 -46 -63 -65 -90 -106 -149 -223 -310 -235 -323 -5 -6 -64
-86 -130 -178 -66 -92 -154 -213 -195 -270 -41 -57 -82 -113 -90 -125 -8 -12
-29 -41 -46 -64 -71 -95 -150 -203 -300 -411 -87 -121 -162 -224 -167 -230 -9
-12 -61 -84 -316 -435 -106 -146 -199 -274 -207 -285 -8 -11 -104 -144 -214
-295 -110 -151 -206 -284 -214 -295 -8 -11 -114 -157 -236 -325 -121 -168
-227 -313 -235 -322 -7 -9 -22 -29 -32 -45 -10 -15 -22 -33 -28 -39 -5 -6 -17
-22 -25 -34 -21 -31 -117 -162 -130 -177 -5 -7 -10 -17 -10 -23 0 -5 -3 -10
-7 -10 -5 0 -19 -17 -33 -38 -14 -20 -27 -39 -30 -42 -4 -3 -22 -27 -41 -55
-18 -27 -36 -52 -40 -55 -3 -3 -21 -27 -40 -55 -18 -27 -38 -55 -44 -61 -5 -6
-17 -21 -25 -34 -8 -12 -36 -51 -62 -87 -38 -52 -47 -71 -41 -92 3 -14 7 -27
9 -29 2 -3 5409 -5 6188 -3 l198 1 -4 30 c-3 16 -1 30 4 30 5 0 6 5 2 11 -9
15 -9 362 0 377 4 7 4 12 -1 12 -10 0 -9 133 1 149 4 6 4 11 -1 11 -10 0 -9
133 1 149 4 6 4 11 -1 11 -4 0 -7 33 -5 72 3 92 3 81 3 163 0 39 -1 77 0 85 0
8 -1 58 -1 110 0 52 -1 111 -1 130 0 19 0 112 -1 206 -1 94 2 176 6 182 4 7 4
12 -1 12 -4 0 -7 33 -5 72 3 89 3 73 2 248 -1 80 -1 150 0 155 1 6 1 15 0 20
-6 26 -2 443 4 453 4 7 4 12 -1 12 -7 0 -9 133 -3 150 2 3 1 10 0 15 -1 6 -1
39 -1 75 3 144 -1 260 -8 261 -37 4 -114 2 -117 -3 -3 -4 -7 -38 -9 -75 -2
-37 -7 -97 -11 -133 -3 -36 -8 -78 -9 -95 -2 -16 -3 -30 -4 -30 -1 0 -4 -20
-6 -45 -7 -94 -16 -159 -36 -270 -12 -63 -23 -128 -26 -145 -2 -16 -11 -52
-18 -80 -8 -27 -16 -61 -19 -75 -13 -73 -83 -302 -121 -395 -79 -194 -155
-333 -252 -463 -59 -78 -172 -197 -232 -242 -18 -14 -45 -34 -59 -46 -104 -80
-331 -196 -412 -209 -3 0 -28 -9 -56 -18 -28 -10 -62 -20 -75 -22 -13 -3 -46
-9 -74 -15 -91 -19 -106 -21 -245 -37 -30 -4 -617 -8 -1303 -10 -997 -3 -1247
-1 -1241 9 24 39 300 414 306 416 4 2 8 10 8 17 0 7 4 15 8 17 7 3 113 148
137 187 6 9 12 18 15 21 3 3 32 41 63 85 32 44 65 91 75 104 9 13 23 30 30 37
6 7 12 17 12 23 0 5 6 14 14 18 7 4 21 23 30 40 9 18 21 33 26 33 6 0 10 5 10
10 0 6 5 16 11 23 6 7 55 75 110 152 55 77 105 142 110 143 5 2 9 10 9 18 0 8
5 14 10 14 6 0 10 7 10 15 0 8 5 15 10 15 6 0 10 6 10 14 0 8 3 16 8 18 4 2
45 56 92 121 47 64 124 171 172 237 49 66 88 124 88 129 0 5 4 11 9 13 5 2 59
73 120 158 61 85 118 164 126 175 9 11 92 126 185 255 93 129 173 240 178 245
4 6 23 33 42 60 18 28 36 52 40 55 3 3 33 43 65 89 33 46 76 106 95 132 19 27
76 105 125 175 50 69 95 131 101 137 6 7 19 25 30 42 10 16 25 37 31 45 7 8
71 96 142 195 71 99 135 185 140 192 6 7 11 16 11 22 0 5 4 11 8 13 5 2 26 28
47 58 36 50 70 96 95 127 6 7 10 15 10 17 0 3 6 14 14 23 8 10 44 59 80 108
36 50 69 95 73 100 5 6 37 51 72 100 35 50 79 110 97 135 41 55 403 557 476
659 65 90 205 282 216 296 4 6 23 32 42 60 19 27 40 56 47 65 36 47 81 109 97
135 10 17 25 37 33 45 7 8 47 62 88 119 64 89 72 106 60 118 -8 8 -18 21 -23
29 -8 14 -334 16 -2973 17 -1630 1 -3009 0 -3063 -3z"/>
</g>
</svg>
